<?xml version="1.0" standalone="no"?>
<!DOCTYPE svg PUBLIC "-//W3C//DTD SVG 20010904//EN"
 "http://www.w3.org/TR/2001/REC-SVG-20010904/DTD/svg10.dtd">
<svg version="1.0" xmlns="http://www.w3.org/2000/svg"
 width="475.000000pt" height="507.000000pt" viewBox="0 0 475.000000 507.000000"
 preserveAspectRatio="xMidYMid meet">

<g transform="translate(0.000000,507.000000) scale(0.100000,-0.100000)"
fill="#000000" stroke="none">
<path d="M834 4727 c-146 -227 -163 -254 -159 -258 2 -2 40 -3 84 -1 78 3 82
5 96 33 l16 29 130 0 130 0 17 -29 c16 -28 20 -30 95 -33 43 -2 80 -1 82 1 4
3 -38 73 -173 284 l-75 117 -76 0 -76 0 -91 -143z m226 -84 c0 -9 -19 -13 -60
-13 -71 0 -73 6 -29 75 l31 48 29 -49 c16 -27 29 -55 29 -61z"/>
<path d="M1397 4864 c-4 -4 -7 -94 -7 -201 l0 -193 85 0 85 0 0 33 c0 27 7 37
50 64 l49 33 86 -66 85 -65 104 3 105 3 -134 94 c-74 52 -135 97 -135 101 0 4
59 47 130 95 72 49 130 92 130 97 0 4 -44 8 -97 8 l-98 0 -130 -90 c-71 -49
-133 -90 -137 -90 -4 0 -9 39 -10 88 l-3 87 -75 3 c-42 1 -79 0 -83 -4z"/>
<path d="M2107 4864 c-4 -4 -7 -94 -7 -201 l0 -193 85 0 85 0 -2 198 -3 197
-75 3 c-42 1 -79 0 -83 -4z"/>
<path d="M2367 4864 c-4 -4 -7 -94 -7 -201 l0 -193 85 0 85 0 0 130 c0 72 3
130 8 129 4 0 54 -58 112 -129 l105 -129 103 0 102 -1 0 200 0 200 -80 0 c-96
0 -93 5 -86 -152 3 -78 1 -108 -7 -107 -7 0 -59 57 -117 127 l-106 127 -95 3
c-52 1 -98 0 -102 -4z"/>
<path d="M3268 4853 c-15 -18 -45 -64 -179 -275 l-68 -108 84 0 c84 0 85 0
100 30 l16 30 130 0 130 0 17 -30 c17 -29 18 -30 100 -30 73 0 99 8 74 24 -5
3 -62 88 -127 191 l-118 185 -72 0 c-56 0 -75 -4 -87 -17z m145 -215 c-2 -5
-33 -8 -69 -8 l-65 0 27 48 c45 78 44 78 79 20 18 -29 30 -56 28 -60z"/>
<path d="M2030 4374 c-238 -27 -350 -51 -522 -114 -271 -99 -505 -249 -710
-457 -156 -156 -261 -299 -352 -478 -283 -550 -286 -1217 -8 -1765 103 -204
197 -337 348 -492 292 -300 610 -472 1044 -565 113 -25 145 -27 340 -27 181 0
234 3 335 22 628 117 1173 538 1439 1110 81 176 130 340 163 544 22 140 21
428 -1 568 -29 182 -89 386 -148 504 l-30 59 -27 -29 c-45 -48 -101 -126 -101
-139 0 -7 18 -66 39 -131 64 -192 91 -357 91 -559 0 -225 -35 -433 -108 -645
-21 -61 -33 -121 -41 -215 -16 -163 -24 -197 -62 -240 -36 -40 -80 -55 -164
-55 l-60 0 -108 -105 c-255 -248 -501 -376 -887 -461 -112 -25 -145 -28 -315
-29 -204 0 -240 5 -469 67 -308 84 -534 209 -740 411 l-111 109 -87 8 c-166
15 -194 58 -218 340 -8 99 -20 165 -45 245 -95 318 -116 564 -70 850 52 325
185 613 397 860 260 303 591 498 987 582 114 24 147 27 346 27 191 1 235 -2
335 -22 236 -48 449 -136 645 -267 116 -77 287 -222 325 -275 12 -17 28 -30
35 -28 20 5 135 111 135 125 0 13 -120 138 -195 204 -267 232 -605 386 -980
445 -89 14 -377 26 -445 18z"/>
<path d="M4600 4340 c-14 -10 -77 -55 -140 -101 -63 -45 -135 -99 -160 -119
-25 -20 -99 -80 -165 -133 -66 -52 -129 -104 -140 -114 -11 -10 -58 -51 -105
-92 -204 -177 -539 -511 -755 -751 -223 -250 -395 -462 -599 -744 -85 -116
-166 -222 -180 -235 -22 -21 -28 -22 -42 -10 -10 8 -78 106 -152 218 -165 249
-270 391 -310 420 -61 43 -108 38 -227 -21 -87 -44 -163 -97 -170 -118 -4 -13
22 -60 88 -157 102 -150 220 -344 367 -603 51 -91 110 -192 130 -225 20 -33
39 -67 43 -75 4 -8 20 -35 36 -60 16 -25 49 -78 72 -118 63 -106 118 -134 185
-93 44 27 65 56 215 306 72 121 159 263 191 315 33 52 74 117 92 145 71 113
412 622 526 785 110 156 395 543 424 573 6 7 31 39 56 72 46 61 299 376 309
385 4 3 38 43 76 90 38 47 81 99 96 115 14 17 67 77 117 135 50 58 109 125
131 150 54 60 48 102 -9 60z"/>
<path d="M1666 3629 c-259 -17 -335 -36 -396 -100 -45 -47 -121 -174 -215
-357 -61 -120 -85 -158 -101 -160 -18 -3 -22 3 -27 44 -8 75 -35 85 -166 63
-81 -15 -121 -48 -121 -103 0 -85 34 -106 171 -106 54 0 89 -4 89 -10 0 -6
-29 -41 -64 -78 -171 -180 -198 -221 -222 -342 -15 -74 -16 -130 -11 -450 9
-534 24 -641 93 -687 23 -15 53 -19 163 -22 203 -5 237 12 248 124 3 31 11 59
17 61 6 2 196 0 421 -4 226 -4 412 -6 415 -4 2 1 -4 18 -14 36 -17 31 -22 34
-84 40 -37 3 -157 6 -268 6 -110 0 -204 3 -207 7 -4 3 -2 12 4 20 9 10 63 13
250 13 131 0 240 4 243 9 10 15 -86 172 -112 182 -13 5 -81 9 -151 9 -149 0
-177 -10 -296 -106 -107 -87 -113 -88 -269 -69 -72 8 -153 18 -181 21 -74 8
-112 22 -135 51 -17 22 -20 40 -19 127 0 55 6 117 12 136 l12 35 80 -2 c44 -1
136 -11 205 -23 185 -32 223 -41 213 -51 -6 -6 -71 -4 -169 5 -272 25 -283 26
-299 9 -11 -11 -15 -39 -15 -107 0 -131 -10 -124 242 -156 192 -24 178 -27
293 62 154 117 142 113 303 116 78 2 142 8 142 13 0 20 -108 203 -209 352
-177 263 -173 255 -168 310 5 60 33 91 139 153 115 67 208 98 283 91 34 -2 76
-12 94 -21 50 -26 120 -101 185 -198 l58 -88 217 0 217 0 26 28 c13 15 59 72
101 127 42 55 87 113 101 128 14 16 40 47 58 69 18 23 46 55 61 72 50 56 68
84 57 91 -21 13 -1183 18 -1524 6 -196 -7 -343 -8 -348 -3 -14 14 159 350 224
433 15 20 46 44 67 53 83 33 667 52 1146 36 325 -10 431 -21 472 -47 25 -16
90 -109 132 -189 38 -72 37 -72 71 -39 35 33 36 43 12 88 -87 159 -141 225
-207 253 -17 7 -94 20 -171 30 -162 19 -949 28 -1168 13z m-801 -1049 c61 -11
169 -29 240 -41 72 -12 135 -26 142 -33 19 -17 123 -214 123 -231 0 -9 -7 -18
-15 -21 -21 -8 -293 23 -443 50 -146 27 -173 43 -185 107 -9 47 -4 160 7 178
9 14 1 14 131 -9z"/>
<path d="M3462 2678 c-45 -61 -80 -113 -79 -115 2 -2 53 6 113 17 138 25 137
26 132 -114 -3 -87 -6 -100 -26 -116 -27 -22 -122 -45 -292 -70 -69 -11 -126
-19 -127 -20 -7 -1 -262 -375 -269 -394 -3 -8 10 -22 33 -36 21 -12 77 -51
124 -86 75 -55 92 -64 129 -64 76 0 324 32 358 46 l32 13 0 104 c0 74 -4 108
-13 115 -14 12 -141 5 -355 -19 -97 -10 -125 -8 -109 8 11 10 303 61 397 69
114 9 114 9 118 -155 5 -176 7 -175 -243 -206 -219 -28 -247 -23 -356 61 -68
52 -135 88 -148 79 -13 -7 -111 -158 -111 -169 0 -3 44 -7 98 -8 78 -2 97 -6
97 -18 0 -12 -20 -16 -112 -18 -109 -3 -113 -3 -131 -30 -41 -59 -59 -55 240
-48 l275 8 8 -59 c15 -123 41 -137 246 -132 205 6 211 13 233 266 42 477 42
823 1 960 -18 62 -149 243 -175 243 -3 0 -43 -50 -88 -112z"/>
<path d="M2174 2415 c11 -31 148 -235 157 -235 10 0 46 37 67 70 9 14 38 56
65 93 27 38 46 72 43 75 -4 3 -81 8 -173 10 -155 4 -166 4 -159 -13z"/>
<path d="M1010 333 c-35 -13 -60 -47 -60 -82 0 -41 5 -51 40 -74 49 -34 177
-15 193 28 8 19 -41 21 -89 3 -29 -10 -36 -9 -54 7 -23 20 -26 45 -8 63 14 14
74 16 83 2 7 -11 58 -8 63 3 6 19 -1 29 -33 43 -34 14 -106 18 -135 7z"/>
<path d="M1226 277 c-4 -35 -4 -76 0 -91 5 -23 11 -27 38 -24 27 3 31 7 34 36
3 33 4 33 50 30 45 -3 47 -4 50 -36 3 -31 6 -33 35 -30 l32 3 0 85 0 85 -32 3
c-31 3 -33 1 -33 -27 0 -37 -28 -55 -70 -46 -23 5 -29 12 -32 38 -3 28 -7 32
-34 35 l-32 3 -6 -64z"/>
<path d="M1517 334 c-4 -4 -7 -45 -7 -91 l0 -83 105 0 c98 0 105 1 105 20 0
17 -8 19 -67 22 -42 2 -68 8 -71 16 -3 9 12 12 52 12 47 0 56 3 56 18 0 14 -8
17 -42 14 -24 -1 -49 2 -57 7 -26 17 0 31 60 31 52 0 60 2 57 18 -3 14 -17 17
-94 20 -49 1 -93 0 -97 -4z"/>
<path d="M1790 329 c-65 -27 -70 -123 -9 -154 58 -30 189 -9 189 30 0 18 -48
20 -85 3 -34 -15 -75 3 -75 34 0 40 14 51 56 44 91 -15 104 -15 104 -2 0 7 -9
21 -20 31 -24 22 -121 31 -160 14z"/>
<path d="M2014 327 c-3 -8 -4 -47 -2 -88 3 -73 3 -74 32 -77 22 -3 34 4 55 29
l27 32 44 -32 c32 -23 54 -31 84 -31 46 1 50 -5 -39 64 l-37 28 49 35 c60 42
64 53 21 53 -22 0 -53 -13 -93 -40 l-60 -40 -5 37 c-5 34 -8 38 -38 41 -21 2
-34 -2 -38 -11z"/>
<path d="M2437 258 c-30 -46 -52 -86 -50 -90 8 -14 63 -8 69 7 5 11 22 15 64
15 39 0 62 -5 70 -15 13 -16 70 -21 70 -6 0 5 -24 45 -52 88 -46 67 -57 78
-85 81 -30 3 -35 -2 -86 -80z m103 3 c14 -28 13 -31 -15 -31 -26 0 -29 7 -19
34 8 21 21 20 34 -3z"/>
<path d="M2690 275 c0 -57 3 -69 26 -92 23 -23 31 -25 91 -21 86 5 103 24 103
115 l0 64 -32 -3 c-33 -3 -33 -4 -36 -60 -3 -65 -24 -88 -62 -68 -15 8 -20 23
-22 68 -3 56 -3 57 -35 60 l-33 3 0 -66z"/>
<path d="M2937 334 c-16 -17 -6 -34 21 -34 41 0 47 -10 47 -75 l0 -60 35 0 35
0 5 65 5 65 33 3 c25 3 32 8 30 20 -3 14 -19 17 -104 20 -55 1 -103 0 -107 -4z"/>
<path d="M3211 330 c-13 -6 -30 -18 -37 -28 -14 -18 -18 -70 -8 -97 23 -59
205 -59 228 0 14 37 6 82 -19 105 -19 18 -39 24 -83 27 -31 1 -68 -2 -81 -7z
m111 -54 c18 -27 3 -64 -27 -67 -53 -5 -74 16 -60 60 9 31 69 36 87 7z"/>
</g>
</svg>
